<?xml version="1.0" encoding="UTF-8"?>
<svg id="Capa_2" data-name="Capa 2" xmlns="http://www.w3.org/2000/svg" viewBox="0 0 37.74 37.74">
  <defs>
    <style>
      .cls-1 {
        fill: #fff;
      }
    </style>
  </defs>
  <g id="Capa_1-2" data-name="Capa 1">
    <g>
      <path class="cls-1" d="M18.87,37.74C8.46,37.74,0,29.28,0,18.87S8.46,0,18.87,0s18.87,8.47,18.87,18.87-8.47,18.87-18.87,18.87Zm0-35.74C9.57,2,2,9.57,2,18.87s7.57,16.87,16.87,16.87,16.87-7.57,16.87-16.87S28.17,2,18.87,2Z"/>
      <path class="cls-1" d="M21.77,28.22c-.26,0-.51-.1-.71-.29l-8.35-8.35c-.19-.19-.29-.44-.29-.71s.11-.52,.29-.71l8.35-8.35c.39-.39,1.02-.39,1.41,0s.39,1.02,0,1.41l-7.64,7.64,7.64,7.64c.39,.39,.39,1.02,0,1.41-.2,.2-.45,.29-.71,.29Z"/>
    </g>
  </g>
</svg>