<?xml version="1.0" encoding="UTF-8"?>
<svg id="Capa_2" data-name="Capa 2" xmlns="http://www.w3.org/2000/svg" viewBox="0 0 37 37.13">
  <defs>
    <style>
      .cls-1 {
        fill: #fff;
      }
    </style>
  </defs>
  <g id="Capa_1-2" data-name="Capa 1">
    <g>
      <path class="cls-1" d="M0,37.13c.18-.67,.34-1.28,.51-1.88,.68-2.47,1.36-4.93,2.02-7.4,.04-.15,0-.35-.07-.49C.69,24.16-.07,20.72,.2,17.08c.33-4.41,2.05-8.24,5.11-11.43C7.96,2.87,11.17,1.03,14.95,.36c7.17-1.28,13.23,.86,17.9,6.46,3.39,4.06,4.7,8.84,3.93,14.07-1.02,6.9-4.85,11.76-11.22,14.55-3.21,1.41-6.6,1.72-10.07,1.14-1.93-.32-3.76-.94-5.49-1.84-.14-.07-.34-.1-.49-.06-3.04,.79-6.07,1.58-9.1,2.38-.11,.03-.22,.05-.41,.09Zm4.42-4.38c.12-.02,.18-.03,.23-.05,1.73-.45,3.45-.9,5.18-1.36,.29-.08,.5-.03,.75,.12,3.4,2.04,7.06,2.7,10.95,1.95,2.91-.56,5.46-1.87,7.58-3.95,3.93-3.87,5.42-8.56,4.47-13.98-.52-2.96-1.88-5.54-3.99-7.69-3.69-3.75-8.19-5.28-13.39-4.51-4.05,.6-7.35,2.6-9.81,5.87-2.84,3.76-3.72,8-2.75,12.61,.39,1.84,1.14,3.53,2.17,5.1,.12,.18,.14,.34,.08,.55-.17,.59-.33,1.19-.5,1.79-.32,1.16-.64,2.32-.97,3.55Z"/>
      <path class="cls-1" d="M12.51,9.9c1.07,.01,1.16,.08,1.57,1.08,.42,1.03,.84,2.06,1.28,3.08,.18,.42,.16,.78-.11,1.13-.36,.47-.71,.94-1.07,1.4-.28,.36-.3,.53-.07,.93,1.5,2.53,3.59,4.36,6.34,5.44,.4,.16,.62,.11,.9-.22,.47-.56,.93-1.13,1.38-1.71,.32-.41,.49-.5,.98-.29,.79,.33,1.56,.71,2.33,1.07,.48,.22,.94,.48,1.42,.7,.33,.15,.44,.39,.44,.74-.03,1.4-.53,2.5-1.78,3.25-1.46,.87-2.97,.93-4.56,.49-4.18-1.16-7.36-3.71-9.91-7.13-.79-1.06-1.56-2.14-2.02-3.39-.63-1.73-.62-3.42,.38-5.02,.14-.23,.31-.44,.49-.64,.69-.81,.95-.92,2.01-.91Z"/>
    </g>
  </g>
</svg>