<?xml version="1.0" encoding="UTF-8"?>
<svg id="Capa_2" data-name="Capa 2" xmlns="http://www.w3.org/2000/svg" viewBox="0 0 69.04 69.04">
  <defs>
    <style>
      .cls-1 {
        fill: #fff;
      }

      .cls-2 {
        fill: none;
      }
    </style>
  </defs>
  <g id="Capa_1-2" data-name="Capa 1">
    <g>
      <g>
        <path class="cls-1" d="M21.23,21.08h24.71c.83,0,1.5-.67,1.5-1.5s-.67-1.5-1.5-1.5H21.23c-.83,0-1.5,.67-1.5,1.5s.67,1.5,1.5,1.5Z"/>
        <path class="cls-1" d="M34.82,29.33c0-.83-.67-1.5-1.5-1.5h-12.09c-.83,0-1.5,.67-1.5,1.5s.67,1.5,1.5,1.5h12.09c.83,0,1.5-.67,1.5-1.5Z"/>
        <path class="cls-1" d="M56.96,41.23s.01-.1,.01-.15V8.01l-1.5-1.5H11.78l-1.5,1.5V60.19l1.5,1.5h25.71s.09,0,.13-.01c2.45,2.03,5.59,3.26,9.01,3.26,7.79,0,14.12-6.33,14.12-14.12,0-3.71-1.45-7.07-3.79-9.59ZM13.28,9.51H53.98v29.27c-2.14-1.31-4.65-2.08-7.35-2.08-7.79,0-14.12,6.33-14.12,14.12,0,2.91,.89,5.62,2.41,7.88H13.28V9.51ZM46.63,61.94c-6.13,0-11.12-4.99-11.12-11.12s4.99-11.12,11.12-11.12,11.12,4.99,11.12,11.12-4.99,11.12-11.12,11.12Z"/>
        <polygon class="cls-1" points="45.14 53.59 41.35 50.17 39.34 52.39 44.41 56.97 46.66 56.7 53.76 46.21 51.28 44.53 45.14 53.59"/>
      </g>
      <rect class="cls-2" width="69.04" height="69.04"/>
    </g>
  </g>
</svg>