<?xml version="1.0" encoding="UTF-8"?>
<svg id="Capa_2" data-name="Capa 2" xmlns="http://www.w3.org/2000/svg" viewBox="0 0 36.62 36.62">
  <defs>
    <style>
      .cls-1 {
        fill: #fff;
      }
    </style>
  </defs>
  <g id="Capa_1-2" data-name="Capa 1">
    <path class="cls-1" d="M18.31,0c4.81,0,9.63,0,14.44,0,1.31,0,2.35,.48,3.14,1.51,.43,.56,.68,1.21,.72,1.93,0,.14,0,.29,0,.43,0,9.63,0,19.26,0,28.88,0,1.31-.48,2.35-1.51,3.14-.56,.43-1.21,.68-1.93,.72-.14,0-.29,0-.43,0-9.63,0-19.26,0-28.88,0-1.31,0-2.35-.48-3.14-1.51-.43-.56-.68-1.21-.72-1.93,0-.14,0-.29,0-.43C0,23.12,0,13.5,0,3.87,0,2.58,.47,1.53,1.49,.75,2.09,.28,2.78,.01,3.55,.01c3.13,0,6.25,0,9.38,0,1.79,0,3.58,0,5.38,0Zm1.83,16.73c0-.61,0-1.2,0-1.79,0-.23-.07-.29-.29-.29-1.63,0-3.26,0-4.89,0-.23,0-.31,.06-.31,.3,0,5.29,0,10.58,0,15.87,0,.24,.07,.3,.31,.3,1.59,0,3.18,0,4.78,0q.41,0,.41-.4c0-3.02,0-6.04,0-9.06,0-.58,.12-1.13,.42-1.64,.84-1.43,2.76-1.76,4.03-.7,.73,.61,1.05,1.4,1.05,2.34,0,3.04,0,6.08,0,9.12,0,.28,.08,.35,.35,.35,1.59-.01,3.18-.01,4.78,0,.28,0,.37-.06,.37-.36-.01-3.3,0-6.6,0-9.89,0-2.53-1.12-4.47-3.29-5.73-2.17-1.26-4.46-1.15-6.49,.44-.42,.33-.78,.74-1.2,1.15Zm-9.15,6.16c0-2.63,0-5.26,0-7.89,0-.25-.04-.35-.33-.35-1.62,.01-3.24,.01-4.86,0-.23,0-.31,.06-.31,.3,0,5.29,0,10.58,0,15.87,0,.24,.07,.3,.31,.3,1.6,0,3.2,0,4.8,0q.38,0,.38-.37c0-2.62,0-5.24,0-7.86Zm.54-14.65c-.02-1.84-1.44-3.27-3.3-3.27-1.82,0-3.27,1.48-3.27,3.28,0,1.81,1.48,3.29,3.3,3.29,1.83,0,3.29-1.47,3.28-3.29Z"/>
  </g>
</svg>