<?xml version="1.0" encoding="UTF-8"?>
<svg id="Capa_2" data-name="Capa 2" xmlns="http://www.w3.org/2000/svg" viewBox="0 0 90.35 69.04">
  <defs>
    <style>
      .cls-1 {
        fill: #fff;
      }

      .cls-2 {
        fill: none;
      }
    </style>
  </defs>
  <g id="Capa_1-2" data-name="Capa 1">
    <g>
      <path class="cls-1" d="M88.74,22.16L47.34,8.44h-.96S6.16,22.17,6.16,22.17v2.84s6.46,2.14,6.46,2.14v20.1c-2.53,.67-4.4,2.96-4.4,5.7,0,3.25,2.65,5.9,5.9,5.9s5.9-2.65,5.9-5.9c0-2.73-1.87-5.03-4.4-5.7V28.15l7.81,2.6v20.41c0,6.46,12.6,9.94,24.46,9.94s24.46-3.49,24.46-9.94V30.58l16.41-5.57v-2.84ZM17.01,52.95c0,1.6-1.3,2.9-2.9,2.9s-2.9-1.3-2.9-2.9,1.3-2.9,2.9-2.9,2.9,1.3,2.9,2.9Zm52.33-1.79c0,2.9-8.16,6.94-21.46,6.94s-21.46-4.04-21.46-6.94V31.75l20.98,6.98h.96s20.98-7.13,20.98-7.13v19.56Zm-21.46-15.43L11.34,23.57,46.87,11.45l36.68,12.16-35.67,12.12Z"/>
      <rect class="cls-2" width="90.35" height="69.04"/>
    </g>
  </g>
</svg>