<?xml version="1.0" encoding="UTF-8"?>
<svg id="Capa_2" data-name="Capa 2" xmlns="http://www.w3.org/2000/svg" viewBox="0 0 45.77 32.14">
  <defs>
    <style>
      .cls-1 {
        fill: #fff;
      }
    </style>
  </defs>
  <g id="Capa_1-2" data-name="Capa 1">
    <path class="cls-1" d="M22.78,0c4.3,.15,8.61,.26,12.91,.46,1.56,.07,3.12,.23,4.65,.53,2.49,.48,4.01,2.08,4.57,4.54,.53,2.29,.65,4.63,.76,6.96,.17,3.41,.1,6.81-.21,10.21-.15,1.55-.32,3.12-.74,4.62-.63,2.27-2.27,3.6-4.58,4-2.84,.49-5.71,.55-8.58,.66-6.59,.24-13.19,.22-19.78-.12-2.1-.11-4.22-.27-6.29-.62-2.6-.44-4.22-2.22-4.71-4.81C.2,23.43,.08,20.38,.02,17.33c-.06-3.08,.06-6.15,.4-9.21,.11-.98,.27-1.97,.5-2.93C1.52,2.78,3.5,1.14,6.07,.81,10.41,.26,14.78,.2,19.16,.13c1.21-.02,2.41,0,3.62,0,0-.04,0-.08,0-.13Zm-4.45,22.96c3.98-2.29,7.9-4.55,11.89-6.85-3.99-2.3-7.92-4.56-11.89-6.85v13.7Z"/>
  </g>
</svg>