<?xml version="1.0" encoding="UTF-8"?>
<svg id="Capa_2" data-name="Capa 2" xmlns="http://www.w3.org/2000/svg" viewBox="0 0 36.18 36.13">
  <defs>
    <style>
      .cls-1 {
        fill: #fff;
      }
    </style>
  </defs>
  <g id="Capa_1-2" data-name="Capa 1">
    <g>
      <path class="cls-1" d="M0,18.08c.05-2.42,.08-4.84,.14-7.27,.04-1.62,.27-3.21,.89-4.72C2.13,3.43,4.05,1.65,6.76,.71,8.21,.21,9.72,.03,11.24,.02c4.54-.02,9.09-.03,13.63,0,1.69,0,3.37,.19,4.97,.81,3.05,1.17,4.98,3.37,5.84,6.51,.39,1.41,.5,2.86,.5,4.31,0,4.16,.01,8.31,0,12.47,0,1.73-.1,3.45-.66,5.11-1.18,3.55-3.64,5.69-7.27,6.47-1.12,.24-2.28,.34-3.42,.36-3.5,.06-6.99,.08-10.49,.07-1.67,0-3.34-.06-5-.21-2.71-.26-5.05-1.3-6.84-3.43-1.14-1.36-1.78-2.94-2.1-4.66-.31-1.66-.31-3.34-.34-5.02-.03-1.57,0-3.15,0-4.72-.02,0-.03,0-.05,0Zm18.13,14.83s0-.03,0-.04c1.51,0,3.02,.03,4.52,0,1.64-.03,3.29,.01,4.9-.33,2.56-.54,4.24-2.05,4.96-4.59,.31-1.11,.39-2.25,.39-3.39,.02-4.21,.03-8.43,0-12.64,0-1.07-.09-2.15-.29-3.2-.53-2.77-2.21-4.48-4.97-5.1-1.26-.28-2.54-.31-3.82-.32-3.36-.03-6.71-.03-10.07-.02-1.62,0-3.25-.01-4.85,.3-2.62,.5-4.38,1.98-5.12,4.59-.35,1.27-.41,2.57-.42,3.87-.03,3.59-.04,7.18-.03,10.77,0,1.53,0,3.06,.3,4.56,.51,2.57,1.97,4.31,4.53,5.04,1.12,.32,2.28,.39,3.44,.42,2.17,.04,4.34,.07,6.5,.1Z"/>
      <path class="cls-1" d="M18.15,27.34c-5.12,.01-9.3-4.17-9.31-9.3,0-5.13,4.16-9.29,9.3-9.3,5.13,0,9.29,4.15,9.3,9.29,.01,5.12-4.16,9.3-9.3,9.31Zm0-3.28c3.34,0,6.02-2.69,6.02-6.02,0-3.34-2.7-6.04-6.05-6.02-3.34,.01-6.01,2.7-6,6.03,0,3.33,2.7,6.02,6.03,6.01Z"/>
      <path class="cls-1" d="M29.98,8.38c0,1.21-.97,2.17-2.18,2.16-1.2,0-2.16-.98-2.15-2.19,0-1.19,.97-2.15,2.17-2.14,1.21,0,2.17,.96,2.16,2.17Z"/>
    </g>
  </g>
</svg>