<?xml version="1.0" encoding="UTF-8"?>
<svg id="Capa_2" data-name="Capa 2" xmlns="http://www.w3.org/2000/svg" viewBox="0 0 191.92 52.57">
  <defs>
    <style>
      .cls-1 {
        fill: #fff;
      }
    </style>
  </defs>
  <g id="Capa_1-2" data-name="Capa 1">
    <g>
      <path class="cls-1" d="M5.03,50.89c.89,.02,1.74-.37,2.3-1.06l1.24,1.2c-.88,.98-2.14,1.54-3.46,1.54-1.2,.05-2.36-.37-3.26-1.16-.86-.76-1.33-1.85-1.3-2.99-.01-1.14,.47-2.22,1.32-2.98,.88-.8,2.03-1.24,3.22-1.21,1.35-.03,2.65,.53,3.55,1.54l-1.2,1.21c-.56-.7-1.41-1.09-2.3-1.07-.68-.02-1.34,.22-1.86,.67-.51,.46-.79,1.12-.77,1.8-.02,.69,.26,1.35,.77,1.82,.47,.45,1.1,.7,1.75,.7Z"/>
      <path class="cls-1" d="M30.78,52.49l-.77-1.76h-3.65l-.77,1.76h-2.08l3.73-8.12h1.86l3.73,8.12h-2.05Zm-2.6-5.7l-1.09,2.36h2.16l-1.07-2.36Z"/>
      <path class="cls-1" d="M54.37,45.09c.64,.56,.97,1.39,.9,2.23,.07,.84-.28,1.67-.93,2.2-.85,.53-1.85,.77-2.85,.7h-1.15v2.3h-1.92v-8.16h3.07c1.01-.08,2.02,.17,2.88,.72Zm-1.4,3.2c.25-.3,.37-.69,.35-1.07,.04-.39-.14-.77-.45-1-.44-.24-.93-.34-1.43-.3h-1.08v2.73h1.3c.47,.05,.94-.08,1.32-.36Z"/>
      <path class="cls-1" d="M71.39,44.37h1.93v8.12h-1.93v-8.12Z"/>
      <path class="cls-1" d="M93.65,45.94v6.56h-1.93v-6.56h-2.45v-1.54h6.82v1.54h-2.44Z"/>
      <path class="cls-1" d="M117.63,52.49l-.77-1.76h-3.62l-.77,1.76h-2.05l3.73-8.12h1.87l3.66,8.12h-2.05Zm-2.6-5.7l-1.09,2.36h2.16l-1.07-2.36Z"/>
      <path class="cls-1" d="M135.27,52.49v-8.12h1.93v6.51h3.68v1.61h-5.61Z"/>
      <rect class="cls-1" x="5.31" width="15.56" height="5.24"/>
      <polygon class="cls-1" points="41.94 31.34 39.47 31.4 41.91 30.61 41.91 10.43 36.72 10.43 36.72 36.65 50.2 36.65 52.77 31.34 41.94 31.34"/>
      <polygon class="cls-1" points="0 36.59 5.57 36.59 13.12 20.61 14.42 18.04 13.63 20.85 21.05 36.59 26.62 36.59 13.31 9.39 0 36.59"/>
      <polygon class="cls-1" points="103.36 36.59 103.36 28.95 112.45 10.49 106.87 10.49 101.62 21.45 99.61 25.47 100.26 22.67 98.5 18.88 98.5 18.88 94.28 10.49 88.68 10.49 98.04 28.89 98.04 36.59 103.36 36.59"/>
      <path class="cls-1" d="M142.02,10.41l12.74,26.23h37.04l.12-26.23h-49.9Zm10.89,5.37h3.53l5.02,10.38,4.77-10.38h3.53l-8.44,16.49-8.41-16.49Zm19.84,10.41c.43,.76,1.07,1.38,1.83,1.8,.82,.45,1.74,.67,2.67,.65,1.47,.01,2.87-.61,3.84-1.71l.15-.17,2.12,2.02-.13,.15c-.72,.83-1.61,1.49-2.63,1.91-1.1,.45-2.28,.67-3.47,.66-1.47,.02-2.92-.33-4.22-1.03h0c-1.23-.66-2.25-1.64-2.96-2.84-1.44-2.54-1.44-5.65,0-8.18,.72-1.2,1.75-2.18,2.98-2.85,2.39-1.23,5.19-1.36,7.68-.36,1.02,.43,1.94,1.09,2.66,1.93l.13,.16-2.12,1.99-.12-.15c-.98-1.09-2.38-1.7-3.84-1.69-.93-.02-1.85,.21-2.67,.64-.77,.42-1.4,1.04-1.83,1.8-.88,1.64-.88,3.61,0,5.25h-.07Z"/>
      <polygon class="cls-1" points="60.32 36.59 65.89 36.59 73.43 20.61 74.74 18.04 73.95 20.85 81.36 36.59 86.94 36.59 73.63 9.39 60.32 36.59"/>
      <polygon class="cls-1" points="114.52 36.59 120.09 36.59 127.63 20.61 128.94 18.04 128.15 20.85 135.56 36.59 141.14 36.59 127.83 9.39 114.52 36.59"/>
    </g>
  </g>
</svg>