<?xml version="1.0" encoding="UTF-8"?>
<svg id="Capa_2" data-name="Capa 2" xmlns="http://www.w3.org/2000/svg" viewBox="0 0 103.27 59.49">
  <defs>
    <style>
      .cls-1 {
        fill: #fff;
      }
    </style>
  </defs>
  <g id="Capa_1-2" data-name="Capa 1">
    <g>
      <path class="cls-1" d="M41.91,23.88c5.37-.1,10.69-.11,16.03,0,.06,.12,.14,.14,.23,0,7.29,.48,12.84,5.53,14.44,13.1,1.73,8.21-1.71,16.46-8.51,20.44-1.99,1.09-4.2,1.69-6.46,1.76-6.52,.42-13.05,.06-19.63,.2v-1.63h4.41V25.37h-3.92c.05-.39-.13-.83,.22-1.15,1.02-.32,2.16,.25,3.19-.35Zm21.13,22.65c0-.77,.07-1.61,.1-2.43,.54-.36,.69-1.08,.34-1.63-.09-.14-.2-.25-.34-.34v-2.97c.71-.58,.77-1.14,0-1.71-.03-2.38-.31-4.74-.85-7.05-.5-1.76-1.2-3.42-3.07-4.22-2.59-1.1-5.28-.54-8.03-.64v2.03c-.08,2.9,.12,5.81-.15,8.71v-10.37c-.22,.12-.28,.23-.28,.35v16.97c0,.32-.06,.67,.25,.91v13.31c-.19,.12-.12,.18,.05,.24,1.68,0,3.37,.08,5.04-.06,3.69-.31,5.51-2.03,6.22-5.67,.06-.32,.17-.63,.25-.94,0,.11,.07,.21,0,0,.15,.15,.08,.08,0,0l.05-.97,.83-.31-.7-.23,.11-.94c.81-.61,.62-1.3,.18-2.01Z"/>
      <path class="cls-1" d="M4.3,25.33H.19c-.22-.6-.25-1.24-.1-1.86H4.29c.2-2.42,.26-4.74,.61-7.01,.95-6.14,3.67-11.28,9.05-14.71C15.7,.71,17.68,.13,19.72,.05c2.92-.24,5.37,.26,7.54,2.3,1.4,1.27,2.02,3.2,1.6,5.04-.27,1.68-1.59,2.99-3.26,3.24-1.58,.32-3.19-.44-3.95-1.87-.77-1.54-.46-3.4,.77-4.61,.42-.44,.92-.81,1.38-1.21-1.21-1.34-3.64-1.67-5.94-.88-2.51,.89-4.2,2.53-4.61,5.25-.81,5.3-.35,10.64-.56,16.12h4.47v1.89h-4.33V57.44h4.52c.21,.59,.24,1.24,.07,1.85H.57c-.21-.59-.21-1.23,0-1.82h3.75l-.02-32.13Z"/>
      <path class="cls-1" d="M71.87,57.86h4.21V25.66c-1.4-.36-2.89,.18-4.3-.3h4.11v-.24h-4.15v-.99l.25-.23h16.78c.69,.35,1.51,.35,2.2,0h2.23c.43,.34,1.03,.34,1.46,0h6.79c.15,3.16,.29,6.3,.44,9.47l-1.54,.4c-.47-1.04-.94-2.06-1.4-3.07-1.23-2.93-4.04-4.87-7.22-4.99-2.23-.19-4.49,0-6.82,0v15.07c3.45,.22,6.77-1.19,7.62-6.14l1.62-.11v14.05c-.48,.05-.85,.42-1.64,.14-.44-2.16-.9-4.56-3.35-5.71-1.34-.59-2.82-.78-4.27-.55v15.35c3.29-.21,6.62,.56,9.82-.68,3.58-1.39,5.21-4.44,6.35-7.86,.14-.42,.25-.86,.39-1.33,.3,0,.58-.08,.85-.09,.31,0,.63,.02,.94,.06-.17,2.72-.28,5.37-.54,8.01-.12,1.15,.18,2.36-.39,3.47-1.45-.51-2.96-.17-4.43-.2-.98,0-2.01-.31-2.96,.23h-22.93c.05-.38-.13-.82,.37-1.24h3.27v-.28l-3.79-.05Z"/>
      <path class="cls-1" d="M23.43,44.86V25.43h-4.51c-.21-.4-.26-.86-.16-1.31h13.27v23.44c-.36,1.03-.36,2.15,0,3.19v6.85h4.61c.41,.58,.17,1.11,.27,1.7H18.87c-.2-.44-.2-.95,0-1.39h4.61v-10.61c.35-.78,.34-1.68-.05-2.45Z"/>
      <path class="cls-1" d="M32.04,24.13h-13.27c.1-.51,.51-.33,.77-.33h11.8c.28,.02,.62-.09,.71,.33Z"/>
      <path class="cls-1" d="M41.91,23.88c-1.02,.59-2.17,0-3.23,.35-.35,.32-.18,.77-.22,1.15-.77-.35-.19-.96-.39-1.54l3.85,.04Z"/>
      <path class="cls-1" d="M94.92,59.41c.94-.54,1.97-.25,2.96-.23,1.47,0,2.98-.31,4.43,.2-2.46,.18-4.93,.11-7.38,.03Z"/>
      <path class="cls-1" d="M71.87,57.86h3.75v.28h-3.26c-.5,.42-.31,.86-.37,1.24-.69-.46-.49-.98-.12-1.52Z"/>
      <path class="cls-1" d="M71.74,25.12h4.15v.24h-4.11l-.04-.24Z"/>
      <path class="cls-1" d="M32.01,50.76c-.36-1.03-.36-2.15,0-3.19v3.19Z"/>
      <path class="cls-1" d="M23.43,44.86c.37,.77,.37,1.67,0,2.45v-2.45Z"/>
      <path class="cls-1" d="M90.96,23.91c-.69,.35-1.51,.35-2.2,0h2.2Z"/>
      <path class="cls-1" d="M94.65,23.91c-.43,.34-1.03,.34-1.46,0h1.46Z"/>
      <path class="cls-1" d="M58.17,23.93c-.09,.12-.17,.1-.23,0,.07-.04,.16-.04,.23,0Z"/>
      <path class="cls-1" d="M71.98,23.9l-.25,.23c-.02-.18,.08-.24,.25-.23Z"/>
      <path class="cls-1" d="M51.06,36.27v7.85c-.31-.24-.25-.58-.25-.91V26.24c0-.12,.05-.23,.28-.35l-.02,10.37Z"/>
      <path class="cls-1" d="M63.14,44.13v-1.97c.54,.36,.69,1.08,.34,1.63-.09,.14-.2,.25-.34,.34Z"/>
      <path class="cls-1" d="M62.88,48.54c.05-.67-.19-1.36,.15-2.01,.45,.71,.64,1.4-.15,2.01Z"/>
      <path class="cls-1" d="M63.14,39.17v-1.71c.77,.54,.72,1.14,0,1.71Z"/>
      <path class="cls-1" d="M62.64,50.02c.05-.18,.09-.36,.13-.54l.7,.23-.83,.31Z"/>
      <path class="cls-1" d="M62.6,50.99c.08,.08,.15,.16,0,0,.07,.2,0,.1,0,0Z"/>
      <path class="cls-1" d="M51.04,57.42c.03,.08,.05,.16,.05,.24-.16-.05-.22-.12-.05-.24Z"/>
    </g>
  </g>
</svg>