<?xml version="1.0" encoding="UTF-8"?>
<svg id="Capa_2" data-name="Capa 2" xmlns="http://www.w3.org/2000/svg" viewBox="0 0 191.92 27.23">
  <defs>
    <style>
      .cls-1 {
        fill: #fff;
      }
    </style>
  </defs>
  <g id="Capa_1-2" data-name="Capa 1">
    <g>
      <path class="cls-1" d="M164.63,15.97c-3.39,0-6.55-.05-9.7,0s-6.3-.24-9.46,.2c.88,4.88,6.91,5.91,12.36,2.2l5.37,3.65c-.66,.79-1.38,1.51-2.17,2.16-5.26,3.53-10.85,4.07-16.52,1.24-4.94-2.46-7.55-8.33-6.6-14.15,.85-5.22,3.65-8.81,8.65-10.46,7.68-2.54,15.46,1.11,17.53,8.82,.25,.87,.43,1.76,.51,2.66,.09,1.09,.02,2.2,.02,3.68Zm-7.79-4.74c-.38-2.97-3.09-5.07-6.06-4.69-.03,0-.05,0-.08,.01-3.07,.43-5.29,2.61-4.89,4.68h11.03Z"/>
      <path class="cls-1" d="M104.23,26.3c-.08-.92-.14-1.74-.23-2.8-.34,.23-.66,.48-.96,.77-3.89,4.82-12.11,3.17-14.76-1.81-.93-1.78-1.41-3.76-1.39-5.77V1.52c.03-.29,.09-.58,.17-.87h7.15c.05,.68,.13,1.36,.13,2.04V13.59c0,.84,.07,1.68,.24,2.5,.44,2.18,2.32,3.77,4.54,3.84,2.23,.1,4.2-1.43,4.65-3.62,.21-.81,.31-1.64,.32-2.48V.64h7.26c.38,1.27,.53,22.12,.15,25.66h-7.27Z"/>
      <path class="cls-1" d="M31.01,.57h7.09l.32,3.24c.39-.27,.76-.57,1.11-.9,2.79-3.19,7.47-3.56,10.9-2.04,2.95,1.31,4.34,3.79,4.78,6.84,.24,1.78,.37,3.58,.38,5.37,.05,4.34,0,8.67,0,13.18h-7.52V13.36c0-1.1-.18-2.19-.53-3.22-.73-1.97-2.74-3.15-4.81-2.85-2.16,.05-3.96,1.69-4.21,3.84-.14,.89-.22,1.8-.22,2.7v12.49c-2.33,.18-4.67,.21-7.01,.09-.58-1.39-.77-22.56-.28-25.84Z"/>
      <path class="cls-1" d="M191.92,26.47h-7.68c-.73-.03-1.38-.46-1.69-1.11-1.1-1.6-2.2-3.2-3.31-4.8-.41-.58-.84-1.14-1.37-1.84-.35,.29-.67,.62-.97,.96-1.32,1.85-2.65,3.68-3.9,5.57-.5,.85-1.44,1.33-2.43,1.24-2.2-.05-4.39,0-7.07,0,3.32-4.97,6.82-9.33,9.98-14.03L164.96,.5c2.88,0,5.49-.05,8.1,.05,.5,0,1.08,.62,1.44,1.1,1.07,1.44,2.05,2.96,3.27,4.75,1.04-1.54,2.01-2.79,2.79-4.17,.56-1.26,1.9-1.99,3.26-1.78,2.1,.15,4.23,0,6.68,0l-5.48,7.68c-.77,1.05-1.49,2.13-2.3,3.14-.66,.65-.67,1.72-.02,2.38,0,0,.01,.01,.02,.02,2.79,3.74,5.5,7.54,8.23,11.32,.29,.38,.51,.78,.97,1.49Z"/>
      <path class="cls-1" d="M78.03,17.46l5.69,4.06c-1.37,3.52-7.63,6.42-13.23,5.45-7.41-1.27-11.28-6.36-11.84-12.07-.78-6.24,3.01-12.14,9-14.05,6.14-2.14,13.27-.04,16.21,4.61l-5.83,4.24c-1.81-1.83-3.92-2.86-6.47-2.4-1.62,.25-3.09,1.1-4.13,2.36-1.98,2.49-1.74,6.08,.54,8.3,2.78,2.76,6.32,2.63,10.08-.5Z"/>
      <path class="cls-1" d="M114.65,7.14V.64h22.22V7.01h-4.83c-3.01,0-3.02,0-3.02,2.92v14.19c0,.69-.08,1.39-.12,2.21h-7.18c-.13-6.31,0-12.62-.09-19.19h-6.98Z"/>
      <path class="cls-1" d="M18.99,.57h7.27V26.42c-2.42,.12-4.85,.12-7.27,0V.57Z"/>
      <path class="cls-1" d="M6.66,13.95C2.83,13.95,.09,11.07,0,7.16-.03,3.5,2.9,.51,6.56,.48c.03,0,.06,0,.08,0,3.64-.12,6.68,2.74,6.8,6.38,0,.12,0,.25,0,.37,.07,3.64-2.83,6.65-6.47,6.72-.1,0-.21,0-.31,0Z"/>
    </g>
  </g>
</svg>