<?xml version="1.0" encoding="UTF-8"?>
<svg id="Capa_2" data-name="Capa 2" xmlns="http://www.w3.org/2000/svg" viewBox="0 0 299.92 60.59">
  <defs>
    <style>
      .cls-1 {
        fill: #fff;
      }
    </style>
  </defs>
  <g id="Capa_1-2" data-name="Capa 1">
    <g>
      <path class="cls-1" d="M168.44,12c.55,.05,.65,.7,.7,1.1,.15,2.05,.2,4.05,.2,6.1,.1,1.95,.1,3.85,.1,5.8,1.1-.85,2.15-1.75,3.45-2.25,2.05-.9,4.55-.9,6.55,.15,2.15,1.1,3.65,3.2,4.4,5.45,.7,2.15,.9,4.45,.75,6.7-.2,2.65-.9,5.3-2.45,7.45-.9,1.25-2.1,2.35-3.6,2.9-2.4,.85-5.05,.55-7.2-.8-.65-.4-1.25-1-1.85-1.5-.25,.8-.45,1.55-.7,2.35-1.15,0-2.25,.1-3.4-.1,.45-1.8,.45-3.7,.5-5.55,.1-6.55,0-13.1-.05-19.6-.15-2.55,.05-5.1-.4-7.6,1.05-.3,2-.6,3-.6Zm8.4,13.5c-1-.2-2-.2-3-.1-1.8,.25-3.25,1.5-4.4,2.8-.05,.45,0,.85-.05,1.3v10.4c-.05,.35,.25,.6,.5,.8,1.75,1.7,4.35,2.5,6.75,1.9,1.15-.3,2.15-1.05,2.7-2.1,.85-1.45,1.15-3.15,1.3-4.8,.1-1.25,.25-2.55,.1-3.8-.05-1.45-.35-3-1.1-4.25-.6-1.05-1.6-1.9-2.8-2.15Zm14.9-12.6c.7-.25,1.5-.2,2.2,.1,.65,.4,1.1,1,1.4,1.7,.45,1.5-.75,3.2-2.3,3.4-1.2,.15-2.5-.55-2.85-1.75-.5-1.3,.25-2.9,1.55-3.45h0Zm-106.64,2.75c1.7-1.15,3.7-2.05,5.8-2.05,2.15-.05,4.35,.1,6.3,1.05,.8,.35,1.6,.75,2.3,1.35-.5,.85-1.15,1.6-1.75,2.35-.8-.45-1.55-.95-2.4-1.25-2.1-.75-4.5-.9-6.6-.05-1.75,.7-3.2,2.05-4.1,3.7-.6,1.15-1.15,2.4-1.4,3.7-.2,1.25-.3,2.55-.35,3.85-.05,1.7-.15,3.45-.05,5.15,.3,2.4,1.1,4.8,2.75,6.6,1.4,1.65,3.5,2.6,5.65,2.8,1.1,.05,2.25,.05,3.35-.2,1.35-.3,2.5-1,3.75-1.55,.7,.7,1.35,1.5,1.95,2.35-.9,.5-1.85,1-2.85,1.4-2.6,1.05-5.55,1.1-8.3,.8-2-.4-3.85-1.45-5.4-2.75-1.8-1.55-3.1-3.6-3.85-5.85-.55-1.5-.8-3.1-.95-4.65-.05-1.2-.2-2.35-.05-3.55,.05-2.25,.4-4.45,1.3-6.55,1-2.6,2.6-5.05,4.9-6.65Z"/>
      <path class="cls-1" d="M0,0V60.59H60.14V0H0ZM41,17.45c-2.9,5.55-5.85,11.1-8.75,16.65-.1,.2-.15,.45-.15,.7v11.9h-4.2v-11.6c0-.4,.05-.85-.2-1.25-2.7-5.05-5.35-10.1-8.05-15.2-.6-1.2-1.25-2.35-1.8-3.55,.25-.05,.55-.15,.8-.15,1.3-.05,2.6,.05,3.9,.1,.2-.05,.3,.15,.35,.3,1.95,4.05,3.9,8.15,5.9,12.2,.45,.85,.8,1.7,1.3,2.5,.4-.65,.75-1.35,1.1-2.05,2.25-4.35,4.35-8.7,6.55-13.05,1.45,.05,2.9-.1,4.35,.15-.25,.85-.75,1.55-1.1,2.35Z"/>
      <path class="cls-1" d="M250.43,16.85c1.15-.35,2.35-.65,3.55-.85-.2,2.2-.35,4.4-.4,6.65,1.85,.05,3.75,.05,5.6,.1-.3,.85-.65,1.7-1.05,2.5h-4.75v6.15c0,1.6,.1,3.25,.05,4.85,.05,1.85-.05,3.7,.15,5.5,.05,.75,.75,1.3,1.4,1.5,1.15,.25,2.35,.15,3.45-.1,.3,.65,.45,1.4,.4,2.1-1,.55-2.2,.65-3.35,.75-1.6,.05-3.4-.2-4.55-1.45-.95-.9-.85-2.3-1-3.5-.1-2.6-.05-5.25-.1-7.85v-8h-3c-.05-.85-.05-1.75,0-2.6h2.95c.35-1.9,.35-3.85,.65-5.75Zm-136.69,5.25c.95,.05,1.9,0,2.8,.3,2.1,.7,3.85,2.15,4.95,4.05,.95,1.65,1.6,3.5,1.65,5.4,.1,2.55,.2,5.2-.6,7.65-.75,2.3-2.35,4.35-4.55,5.5-2.15,1.1-4.75,1.35-7.05,.7-2.1-.55-3.9-1.95-5.1-3.75-1.35-1.95-1.8-4.3-1.85-6.65-.05-2.25-.1-4.55,.65-6.7,.7-2.1,2.05-4.05,3.95-5.25,.85-.55,1.8-1,2.8-1.2,.8-.1,1.6-.05,2.35-.05h0Zm-1.8,2.9c-1.2,.3-2.35,1-3,2.05-.95,1.55-1.1,3.4-1.2,5.15-.1,1.3,0,2.6,.1,3.9,.2,1.55,.5,3.2,1.25,4.6,.8,1.5,2.5,2.25,4.15,2.35,1.55,.1,3.25-.3,4.35-1.5,.9-1,1.4-2.25,1.6-3.6,.25-1.65,.2-3.3,.15-4.95-.05-1.7-.2-3.5-.9-5.1-.4-1-1.15-1.85-2.1-2.35-1.3-.8-2.95-.9-4.4-.55Zm17.45-2.15c1.05-.35,2.1-.6,3.2-.8,.45,1,.7,2.1,.8,3.2,.75-.4,1.3-1,2-1.45,1.55-1.15,3.45-1.85,5.4-1.75,.45,.05,.85,.15,1.25,.35,.65,.35,1.35,.7,1.9,1.2,.55,.55,.95,1.25,1.35,1.95,.9-.4,1.55-1.1,2.35-1.65,1.35-.95,2.9-1.7,4.6-1.85,1.55-.15,3.1,.35,4.25,1.4,.5,.5,1.05,1,1.3,1.65s.35,1.35,.4,2.05c.25,3.65,.1,7.35,.25,11v7.3c-1.2,0-2.4,.05-3.65,0v-10.95c0-2.35,.05-4.7-.15-7.05-.1-.75-.5-1.45-1.1-1.9-.7-.45-1.6-.4-2.4-.35-1.45,.15-2.6,1.05-3.7,1.9-.5,.45-1.05,.85-1.55,1.3-.15,.1-.1,.35-.1,.5v16.5h-3.6v-12.85c0-1.05,0-2.1-.05-3.1-.05-1.05,.05-2.2-.45-3.15-.75-1.05-2.2-1.25-3.35-.95-1.8,.45-3.4,1.55-4.75,2.8-.2,.15-.2,.4-.2,.65v16.65c-1.05,.05-2.1,.05-3.15,0-.1-5.65-.05-11.35-.2-17.05-.05-1.3-.05-2.6-.2-3.85-.15-.6-.35-1.15-.45-1.7h0Zm61.49-.2c1.15-.15,2.3-.35,3.45-.6,.15,3.2,.1,6.4,.1,9.6v13.8c-1.2,.05-2.4,.05-3.6,0-.05-6.6,0-13.15,0-19.75,.05-1,0-2.05,.05-3.05Zm46.35-.45c2.45,.45,4.55,2.7,4.6,5.25,.15,3.8-.05,7.6,0,11.4v1.15c0,.75,.05,1.5,.25,2.25,.15,.75,.85,1.15,1.4,1.6-.5,.7-.95,1.5-1.6,2.1-.4,.35-.9-.05-1.2-.25-.85-.65-1.45-1.6-1.95-2.55-.8,.45-1.35,1.1-2.15,1.55-1.3,.85-2.85,1.35-4.45,1.3-1.4,.05-2.85-.2-4.1-.85-2.05-1.1-3.2-3.5-3.15-5.75,0-2.2,1.1-4.35,2.85-5.65,2.1-1.6,4.8-2.1,7.35-2.3,1.15-.1,2.35-.1,3.55-.15,.05-1.15-.05-2.3-.2-3.45-.15-.95-.6-1.95-1.5-2.45-1.05-.55-2.3-.6-3.5-.4-2.2,.25-4.25,1.2-6.05,2.5-.5-.7-1-1.35-1.4-2.1-.2-.35,.1-.65,.4-.8,2.4-1.35,5.05-2.5,7.85-2.45h1.2c.6-.05,1.2-.05,1.8,.05h0Zm-1.5,11.45c-1.1,.1-2.25,.15-3.3,.45-1.3,.35-2.5,1.2-3.2,2.35-.4,.65-.4,1.45-.45,2.2,0,.8-.1,1.7,.2,2.45,.3,.8,.85,1.55,1.65,1.85,.9,.4,1.95,.45,2.95,.35,1.2-.15,2.25-.8,3.15-1.5,.75-.65,1.5-1.45,1.55-2.5,.15-1.85,.1-3.7,.15-5.55-.9,0-1.8-.2-2.7-.1Zm39.2-11.4c2.05,.5,3.9,1.75,5.1,3.45,1,1.4,1.65,3,1.95,4.7,.25,1.6,.35,3.25,.25,4.85-.05,2.65-.85,5.3-2.45,7.4-1.3,1.7-3.3,2.7-5.35,3.1-2.5,.45-5.2,0-7.3-1.5-1.85-1.3-3-3.4-3.65-5.5-.35-1.1-.4-2.2-.5-3.35-.05-1.9-.05-3.8,.3-5.65,.5-2.1,1.55-4.15,3.15-5.65,1.2-1.1,2.7-1.8,4.3-2,1.4-.15,2.8-.1,4.2,.15Zm-3.95,2.7c-1.7,.2-3.05,1.55-3.6,3.1-.7,1.65-.6,3.45-.65,5.2,.05,1.65,.05,3.3,.35,4.95,.2,1.1,.55,2.2,1.3,3.05,.7,.85,1.75,1.4,2.8,1.6,.4,.1,.85,.15,1.25,.15h.4l.4-.05c.85-.1,1.65-.35,2.4-.75,.9-.5,1.55-1.45,1.9-2.4,.45-1.15,.5-2.4,.6-3.6,.05-1.45,.1-2.9,0-4.35-.1-1.5-.3-3.05-1-4.4-.65-1-1.55-1.85-2.65-2.35-1.05-.3-2.3-.3-3.5-.15Zm17.4-2.05c1.1-.3,2.15-.65,3.25-.9,.6,1.1,.7,2.4,.75,3.6,.55-.4,1-.95,1.5-1.45,1.55-1.55,3.85-2.5,6.05-2.1v.3c-.5,1.05-.8,2.2-1.25,3.3-.05,.2-.35,.15-.5,.15-.95,0-2,0-2.85,.5-.85,.5-1.6,1.15-2.2,1.95-.6,.75-.5,1.8-.5,2.7-.05,1.3-.1,2.6-.05,3.9v10.55c-1.2,.05-2.4,.05-3.6,0v-11.75c0-2.65,0-5.35-.1-8-.1-.9-.4-1.8-.5-2.75Zm-86.84,.05c1.05-.35,2.15-.75,3.25-.75,.4,1.05,.65,2.15,.8,3.25,.95-.6,1.75-1.4,2.75-1.95,1.9-1.1,4.2-1.9,6.35-1.1,1.25,.45,2.5,1.15,3.25,2.3,.6,.8,.75,1.9,.85,2.9,.2,3.55,.15,7.1,.15,10.7,0,2.4,.05,4.75,.05,7.15-1.2,.05-2.4,.05-3.6,0,0-3.9-.1-7.85-.1-11.75-.05-2.2,.05-4.35-.2-6.55-.35-1.05-1.35-1.9-2.45-1.95-.8-.05-1.65-.05-2.45,.25-1.7,.65-3.25,1.7-4.65,2.85-.05,5.7,0,11.45,0,17.15-1.05,0-2.1,.05-3.15,0,0-3.25-.1-6.5-.1-9.75-.05-3.35,0-6.65-.2-10-.05-.95-.35-1.85-.55-2.75h0Z"/>
    </g>
  </g>
</svg>