<?xml version="1.0" encoding="UTF-8"?>
<svg id="Capa_2" data-name="Capa 2" xmlns="http://www.w3.org/2000/svg" viewBox="0 0 669.68 213.78">
  <defs>
    <style>
      .cls-1 {
        fill: #2929fa;
      }
    </style>
  </defs>
  <g id="Capa_1-2" data-name="Capa 1">
    <g>
      <path class="cls-1" d="M508.54,104.93c0,32.22,0,64.44,0,96.65,0,5.48-2.15,7.61-7.67,7.61-8.09,0-16.17-.05-24.26,.03-2.98,.03-5.58-.5-7.13-3.32-1.59-2.9-.8-5.73,.73-8.32,2.82-4.79,5.84-9.47,8.7-14.24,.53-.88,1.11-2.07,.92-2.95-.19-.85-1.37-2.07-2.1-2.06-1.08,.02-2.46,.73-3.15,1.59-2.21,2.74-4.03,5.81-6.25,8.53-9.53,11.65-21.03,20.48-36.01,23.78-17.57,3.88-33.45-.31-47.5-11.25-15.75-12.27-24.6-28.87-28.73-48.11-3.65-17-2.84-33.89,2.5-50.46,3.84-11.92,9.87-22.59,18.59-31.7,8.37-8.74,18.19-15.12,30.01-17.87,18.25-4.25,34.67-.01,49.26,11.62,7.19,5.73,13.1,12.59,18.03,20.33,.74,1.17,1.66,2.19,3.1,1.74,.84-.27,1.8-1.05,2.12-1.84,.29-.71,.03-1.9-.41-2.62-5.31-8.86-8.66-18.39-9.97-28.63-.32-2.49-.59-5-.6-7.5-.06-12.78-.03-25.56-.03-38.34,0-4.75,2.23-6.98,6.99-6.98,8.63,0,17.26,0,25.89,0,4.68,0,6.97,2.3,6.97,7.02,0,32.42,0,64.84,0,97.27Zm-114.48,27.36c.56,4.36,.83,8.78,1.73,13.06,2.28,10.75,7,20.24,15.69,27.33,5.96,4.86,12.76,7.42,20.55,6.63,9.88-1,17.2-6.33,22.78-14.14,7.76-10.85,10.64-23.14,9.87-36.36-.69-12.06-4.32-23.03-12.33-32.27-5.49-6.33-12.27-10.51-20.8-11.1-11.03-.77-19.38,4.41-25.97,12.66-7.94,9.93-11.07,21.57-11.53,34.18Z"/>
      <path class="cls-1" d="M669.68,105.02c0,32.15,0,64.29,0,96.44,0,5.56-2.2,7.75-7.77,7.75-8.22,0-16.45-.18-24.66,.07-5.45,.16-9.42-4.35-6.49-10.45,1.61-3.35,3.78-6.43,5.71-9.63,1.2-1.97,2.43-3.92,3.64-5.89,1.37-2.24,1.22-3.83-.42-4.77-1.53-.88-2.98-.25-4.31,1.83-5.4,8.43-11.99,15.78-20.05,21.75-10.07,7.46-21.35,11.64-33.92,11.55-16.06-.12-29.71-6.38-41.1-17.52-14.21-13.89-21.76-31.1-24.36-50.59-2.37-17.74-.27-34.95,6.93-51.41,5.98-13.67,14.76-25.11,27.33-33.39,20.6-13.58,46.45-12.48,66.12,2.77,7.54,5.84,13.8,12.83,18.98,20.82,.4,.62,.79,1.57,1.34,1.71,1.07,.26,2.46,.42,3.34-.07,1.37-.75,1.33-2.24,.61-3.6-1.39-2.64-2.91-5.22-4.17-7.93-4.43-9.5-6.58-19.55-6.64-30.02-.06-12.16-.02-24.33-.01-36.5,0-5.13,2.18-7.27,7.33-7.28,8.49,0,16.99,0,25.48,0,4.83,0,7.09,2.27,7.09,7.12,0,32.42,0,64.83,0,97.25Zm-43.78,27.41c0-.95,.05-1.9,0-2.85-.89-14.36-5.32-27.21-16.44-36.95-6.47-5.67-14.09-8.34-22.78-6.92-10.17,1.67-17.33,7.74-22.61,16.17-8.05,12.86-10.06,26.93-7.44,41.71,1.95,10.98,6.5,20.71,14.98,28.24,5.87,5.21,12.75,8.1,20.68,7.59,8.83-.57,15.85-4.85,21.49-11.5,8.68-10.23,11.92-22.36,12.13-35.49Z"/>
      <path class="cls-1" d="M346.33,152.44c0,16.58,0,33.17,0,49.75,0,4.55-2.36,6.99-6.83,7-9.17,.02-18.35,0-27.52,0-.34,0-.68,0-1.02-.02-3.68-.31-5.27-3.58-3.13-6.58,2.91-4.09,5.94-8.11,8.87-12.19,.91-1.26,.95-2.61-.37-3.61-1.36-1.04-2.67-.74-3.74,.58-.21,.26-.4,.55-.61,.82-4.03,5.28-8.66,9.96-14.11,13.74-17.14,11.9-35.65,15.44-55.41,7.79-23.25-9-34.97-35.35-26.22-58.14,3.58-9.32,10.48-15.68,18.93-20.57,9.91-5.73,20.79-8.85,31.72-11.86,9.47-2.6,18.92-5.28,28.31-8.16,2.35-.72,4.56-2.11,6.61-3.53,4.7-3.24,5.86-7.86,3.53-13.06-2.18-4.87-6.01-8.03-10.86-9.88-8.12-3.08-16.36-3.02-24.42,.11-7.09,2.75-11.07,8.26-12.56,15.63-.85,4.19-2.9,5.94-7.15,5.95-8.09,.01-16.17,.02-24.26,0-4.99-.01-7.55-3.15-6.82-8.09,1.61-10.95,5.62-20.77,13.23-28.97,6.2-6.69,13.76-11.32,22.4-13.87,19.29-5.68,38.73-5.97,57.8,.72,18.83,6.61,29.57,20.43,32.82,40.01,.66,3.99,.75,8.1,.77,12.16,.09,14.75,.03,29.5,.03,44.25Zm-39.79-3.93c-.08-1.15-.04-2.32-.27-3.43-.7-3.45-4.3-5.92-7.62-5.2-8.34,1.83-16.69,3.64-25,5.62-5.02,1.19-9.92,2.8-14.33,5.61-4.66,2.98-7.59,7.07-7.36,12.74,.24,6.12,3.24,10.68,8.78,13.41,5.96,2.94,12.3,3.24,18.69,2.07,15.54-2.83,26.07-14.95,27.1-30.84Z"/>
      <path class="cls-1" d="M62.24,153.06c0,16.38,0,32.76,0,49.14,0,4.77-2.2,6.99-6.95,7-8.56,.02-17.12,.01-25.68,0-4.74,0-7.11-2.39-7.11-7.18,0-32.83,0-65.65,0-98.48,0-5.1-2.32-7.41-7.49-7.42-2.79,0-5.57,.01-8.36,0-3.94-.03-6.51-2.29-6.56-6.22-.11-9.11-.11-18.21,0-27.32,.05-3.76,2.89-6.28,6.69-6.2,7.03,.14,13.66,1.87,19.83,5.3,5.69,3.17,11.42,6.26,17.16,9.35,2.36,1.27,4.28,.78,5.41-1.24,1.15-2.06,.46-4.02-1.94-5.41-4.35-2.51-8.68-5.06-13.07-7.51-8.32-4.65-13.1-11.82-14.91-21.04-1.94-9.86-.92-19.24,5.19-27.57C28.08,3.3,32.98,.62,39.25,.63c9.51,.03,19.03,0,28.54,.01,4.55,0,6.7,2.18,6.7,6.75,0,6.52,0,13.05,0,19.57,0,4.31-2.32,6.62-6.68,6.64-4.35,.02-8.7,0-13.05,0-3.96,.02-7.3,2.53-8.34,6.23-1.05,3.76,.3,7.43,3.78,9.48,7.38,4.35,15.38,6.71,23.96,7,2.38,.08,4.76-.02,7.13,.03,3.89,.07,6.47,2.47,6.5,6.35,.09,9.04,.1,18.08,0,27.12-.05,4.06-2.55,6.27-6.67,6.29-3.74,.01-7.47,0-11.21,0-5.13,0-7.67,2.51-7.67,7.6,0,16.45,0,32.89,0,49.34Z"/>
      <path class="cls-1" d="M161.66,104.73c0-32.21,0-64.42,0-96.64,0-5.31,2.12-7.45,7.36-7.45,8.49,0,16.99,0,25.48,0,4.77,0,7.03,2.24,7.03,6.95,0,64.83,0,129.66,0,194.5,0,4.75-2.36,7.1-7.15,7.11-8.49,.01-16.99,.01-25.48,0-4.91,0-7.25-2.34-7.25-7.22,0-32.42,0-64.83,0-97.25Z"/>
      <path class="cls-1" d="M101.6,132.87c0-22.97,0-45.94,0-68.92,0-5.52,2.1-7.61,7.64-7.61,8.29,0,16.58,0,24.87,0,4.93,0,7.25,2.32,7.25,7.24,0,46.15,0,92.3,0,138.45,0,4.83-2.28,7.15-7.07,7.16-8.56,.01-17.12,.01-25.69,0-4.75,0-6.99-2.24-6.99-7,0-23.11,0-46.22,0-69.32Z"/>
      <path class="cls-1" d="M121.38,47.93c-12.38,.5-24.1-10.3-23.87-24.09C97.73,10.71,108.27,0,121.43,0c13.32,0,24.01,10.8,24.03,24.19,.02,13.58-11.57,24.3-24.07,23.74Z"/>
    </g>
  </g>
</svg>