<?xml version="1.0" encoding="UTF-8"?>
<svg id="Capa_2" data-name="Capa 2" xmlns="http://www.w3.org/2000/svg" viewBox="0 0 69.33 69.33">
  <defs>
    <style>
      .cls-1 {
        fill: #ddd;
      }

      .cls-2 {
        fill: #fff;
      }

      .cls-3 {
        fill: #2929fa;
      }
    </style>
  </defs>
  <g id="Capa_1-2" data-name="Capa 1">
    <g>
      <g>
        <path class="cls-2" d="M34.67,67.83C16.38,67.83,1.5,52.95,1.5,34.67S16.38,1.5,34.67,1.5s33.17,14.88,33.17,33.17-14.88,33.17-33.17,33.17Z"/>
        <path class="cls-1" d="M34.67,3c17.46,0,31.67,14.21,31.67,31.67s-14.21,31.67-31.67,31.67S3,52.13,3,34.67,17.21,3,34.67,3m0-3C15.52,0,0,15.52,0,34.67s15.52,34.67,34.67,34.67,34.67-15.52,34.67-34.67S53.81,0,34.67,0h0Z"/>
      </g>
      <path class="cls-3" d="M29.5,45.9c0-3.77,0-7.54,0-11.31,0-1.43-.37-1.78-1.81-1.82-3.27-.08-3.41-.23-3.41-3.48,0-1.41-.02-2.82,0-4.23,.02-1.34,.54-1.84,1.87-1.84,1.71,0,3.27,.59,4.75,1.36,1.22,.64,2.4,1.33,3.59,2.01,.43,.25,.86,.44,1.18-.11,.33-.57,.1-1-.43-1.31-.93-.55-1.82-1.17-2.79-1.64-4.14-2.04-5.25-8.54-2.08-12.15,.82-.93,1.97-1.31,3.16-1.34,2.16-.07,4.33-.04,6.49-.01,.94,.01,1.79,.41,1.83,1.41,.07,1.81-.03,3.64-.13,5.45-.04,.75-.62,1.02-1.33,1.02-.95,0-1.9,0-2.85,0-1.19,.02-1.99,.61-2.25,1.66-.22,.88,.19,1.56,1.28,2.16,1.85,1.01,3.82,1.48,5.92,1.48,2.19,0,2.54,.37,2.54,2.6,0,1.57,0,3.15,0,4.72,0,1.53-.67,2.19-2.22,2.23-.59,.01-1.18,0-1.77,0-1.67,.02-1.97,.32-1.97,1.96,0,7.31,0,14.63,0,21.94,0,2.27-.41,2.68-2.7,2.68-1.48,0-2.95,0-4.43,0-1.97,0-2.46-.48-2.46-2.42,0-3.67,0-7.35,0-11.02Z"/>
    </g>
  </g>
</svg>