<?xml version="1.0" encoding="UTF-8"?>
<svg id="Capa_2" data-name="Capa 2" xmlns="http://www.w3.org/2000/svg" viewBox="0 0 540.33 266.19">
  <defs>
    <style>
      .cls-1 {
        fill: #fff;
      }
    </style>
  </defs>
  <g id="Capa_1-2" data-name="Capa 1">
    <g>
      <g>
        <path class="cls-1" d="M385.86,69.04c-.26-1.4-.17-2.98-.83-4.16-5.23-9.46-7.87-19.47-7.55-30.35,.28-9.46,.04-18.93,.07-28.4,.01-4.4,1.72-6.08,6.16-6.11,6.54-.04,13.07-.03,19.61,0,4.06,.01,6.23,1.91,6.74,5.93,.17,1.33,.11,2.7,.11,4.05,0,49.59,0,99.18,0,148.77,0,1.13,.04,2.26-.05,3.38-.32,4.19-2.22,6.32-6.35,6.42-6.87,.17-13.75,.21-20.62,0-5.3-.15-7.45-4.93-4.55-9.88,2.04-3.49,4.42-6.79,6.38-10.32,.63-1.13,1.03-3.51,.45-3.98-1.97-1.59-2.8,.51-3.75,1.86-8.04,11.4-17.84,20.52-31.72,24.27-11.98,3.24-23.3,1.67-34.09-4.52-17.16-9.84-25.77-25.35-29.68-44.07-4.14-19.82-1.14-38.55,9.55-55.68,8.17-13.09,19.7-22.36,35.33-24.75,13.72-2.1,26.53,1.03,37.09,10.49,4.56,4.08,8.35,9.02,12.5,13.56,1.26,1.38,2.57,2.71,3.85,4.06,.45-.19,.89-.38,1.34-.58Zm-67.96,38.5c-.37,7.93,2.07,16.3,7.01,23.8,4.69,7.12,10.96,12.35,19.99,12.63,11.23,.34,18.55-6.04,23.59-15.19,5.12-9.29,6.93-19.25,4.87-29.92-1.75-9.08-5.1-17-11.9-23.61-9.7-9.42-25.2-7.77-33.78,2.48-6.9,8.23-10.18,17.86-9.77,29.81Z"/>
        <path class="cls-1" d="M515.9,69.18c-.15-1.36,.11-2.95-.51-4.03-5.7-9.92-8.11-20.57-7.83-31.98,.22-8.79,.03-17.59,.05-26.38,.01-5.08,1.65-6.75,6.6-6.77,6.43-.02,12.85-.03,19.28,0,4.16,.02,6.4,2.1,6.78,6.28,.09,1.01,.04,2.03,.04,3.04,0,49.95,0,99.9,0,149.85,0,7.91-1.56,9.46-9.49,9.46-5.41,0-10.82,.04-16.24-.01-6.33-.06-8.69-3.67-5.85-9.26,1.93-3.79,4.46-7.27,6.45-11.04,.6-1.14,.28-2.77,.38-4.17-1.21,.65-2.86,1-3.57,2-8.17,11.47-18.06,20.62-32.04,24.43-11.9,3.25-23.17,1.52-33.82-4.5-18.32-10.36-27.09-27.21-30.4-47.03-3.14-18.78-.03-36.87,10.35-53.13,8.26-12.94,19.81-21.98,35.24-24.41,13.46-2.13,26.11,.92,36.56,10.1,4.59,4.04,8.41,8.96,12.58,13.48,1.35,1.47,2.69,2.96,4.03,4.44,.47-.12,.94-.24,1.41-.37Zm-11.45,36.82c-.33-2.52-.64-5.99-1.27-9.4-1.83-9.79-6.37-18.22-14.69-23.73-3.61-2.39-8.6-3.88-12.93-3.79-10.54,.22-17.49,6.63-22.43,15.53-4.47,8.06-5.53,16.75-4.91,25.77,.74,10.73,4.47,20.1,12.54,27.48,9.06,8.29,21.69,8.27,30.8-.03,9.1-8.29,12.24-19.02,12.89-31.84Z"/>
        <path class="cls-1" d="M279,121.88c0,12.85,.01,25.7,0,38.55,0,6.32-1.93,8.21-8.27,8.22-6.31,0-12.63,.15-18.93-.11-1.67-.07-3.74-1.05-4.76-2.31-.55-.68,.45-3,1.22-4.3,1.49-2.5,3.44-4.73,4.93-7.23,.63-1.06,.57-2.53,.82-3.82-1.19,.53-2.7,.76-3.51,1.64-5.69,6.16-11.74,11.71-19.53,15.28-17.22,7.92-37.47,5-49.7-7.74-11.17-11.63-14.01-30.95-4.57-44.4,4.76-6.78,11.44-11.31,19.05-13.89,13.37-4.53,27.01-8.23,40.47-12.48,2.61-.83,5.13-2.32,7.35-3.96,3.96-2.94,3.54-8.46-.76-13.03-4.71-5-10.91-6.29-17.28-5.89-7.58,.48-14.37,3.01-17.48,10.95-.65,1.65-.68,3.69-1.71,5-1.11,1.41-3,2.99-4.62,3.07-6.86,.34-13.74,.24-20.62,.12-3.84-.06-6.09-2.73-5.46-6.53,3.04-18.31,13.38-30.93,31.74-35.65,13.77-3.54,27.71-3.54,41.35,.27,15.78,4.4,26.68,16.12,29.34,32.67,.73,4.52,.84,9.17,.9,13.77,.12,10.59,.04,21.19,.04,31.78Zm-59.68,22.32c14.67,.67,24.53-9.65,26.9-23.25,1.08-6.18-2.41-9.16-8.55-7.69-4.57,1.09-9.23,1.84-13.72,3.2-5.33,1.61-10.78,3.2-15.69,5.73-5.76,2.97-7.07,8.98-4.08,14.75,3.21,6.19,8.87,7.39,15.14,7.26Z"/>
        <path class="cls-1" d="M17.97,123.65c0-12.96,.01-25.92-.01-38.88,0-4.92-1.26-6.13-6.23-6.26C.5,78.23,.02,77.74,.02,66.55c0-4.85-.05-9.69,.03-14.54,.08-4.6,1.86-6.34,6.42-6.33,5.88,.01,11.23,2.01,16.33,4.69,4.18,2.19,8.25,4.56,12.35,6.9,1.49,.85,2.95,1.51,4.06-.37,1.14-1.95,.34-3.43-1.47-4.5-3.19-1.89-6.26-4.01-9.58-5.64-14.23-7-18.05-29.35-7.14-41.74C23.82,1.82,27.78,.52,31.88,.39c7.43-.23,14.87-.13,22.31-.05,3.22,.04,6.16,1.4,6.29,4.84,.23,6.24-.12,12.5-.46,18.75-.14,2.59-2.13,3.5-4.56,3.49-3.27,0-6.54-.02-9.8,.03-4.08,.05-6.83,2.11-7.72,5.7-.75,3.02,.67,5.35,4.41,7.41,6.34,3.49,13.14,5.08,20.35,5.1,7.53,.02,8.71,1.27,8.72,8.95,0,5.41,.03,10.82,0,16.23-.03,5.27-2.3,7.53-7.62,7.66-2.03,.05-4.06,0-6.09,.02-5.72,.07-6.77,1.1-6.77,6.73,0,25.13,0,50.26,0,75.39,0,7.79-1.42,9.19-9.28,9.2-5.07,0-10.14,.01-15.21,0-6.77-.02-8.44-1.65-8.45-8.32-.02-12.62,0-25.24,0-37.87Z"/>
        <path class="cls-1" d="M161.79,84.31c0,25.48,0,50.96,0,76.44q0,7.89-8.06,7.89c-6.43,0-12.85,.02-19.28-.01-4.3-.02-5.37-1.06-5.45-5.42-.08-3.83-.03-7.67-.03-11.5,0-47.69,0-95.39,0-143.08,0-1.35-.03-2.71,.03-4.06,.17-3.78,.92-4.54,4.69-4.55,7.67-.04,15.33-.02,23,0,4.41,0,5.08,.64,5.08,5.14,.02,21.76,.01,43.52,.01,65.28,0,4.62,0,9.25,0,13.87Z"/>
        <path class="cls-1" d="M81.92,107.76c0-18.26,0-36.52,0-54.78,0-5.79,1.45-7.28,7.12-7.31,6.09-.04,12.17-.04,18.26,0,5.73,.04,7.34,1.7,7.36,7.57,.03,7.1,0,14.2,0,21.3,0,28.74,0,57.49,0,86.23,0,7.28-1.82,9.07-9.23,9.08-5.3,.01-10.6,.05-15.89-.02-6.12-.08-7.62-1.61-7.62-7.62-.01-18.15,0-36.3,0-54.44Z"/>
        <path class="cls-1" d="M98.37,.04c10.45,.18,19.31,7.99,19.26,19.37-.05,11.78-7.28,19.64-19.66,19.8-12.01,.16-19.18-9.16-19.35-19.58C78.44,8.8,87.5-.03,98.37,.04Z"/>
      </g>
      <path class="cls-1" d="M468.53,223.68c.3-.49,.57-.74,.62-1.03,.75-4.45,2.76-5.81,7.15-4.51,.73,.22,1.62,1.55,1.62,2.37,.1,13.98,.11,27.95-.03,41.93,0,.82-1.32,1.9-2.27,2.36-.82,.4-2-.01-3,.11-2.52,.32-3.53-.77-3.37-3.24,.04-.63-.22-1.29-.4-2.29-.85,.46-1.6,.68-2.08,1.17-9.13,9.22-29.47,7.85-35.26-9.78-3.38-10.29-2.25-20.27,6.24-28.28,7.74-7.3,20.84-7.53,28.69-.48,.63,.57,1.34,1.06,2.1,1.66Zm.67,17.83c.22-6.03-1.67-11.37-7.28-14.7-7.16-4.24-16.56-2.07-20.54,4.53-4.99,8.27-2.96,20.01,4.3,24.5,5.11,3.16,10.45,3.38,15.71,.53,5.73-3.11,7.88-8.32,7.81-14.86Z"/>
      <path class="cls-1" d="M211.19,245.27c.98,6.81,4.98,11.65,10.27,12.8,7.39,1.6,12.12-.25,16.12-6.04,2.51-3.63,6.09-1.22,9.59-1.8-.74,5.26-3.4,8.85-7.1,11.45-11.2,7.86-29.39,5.42-35.66-8.8-5.56-12.61-1-29.48,11.22-34.04,16.43-6.13,33.64,2.9,32.9,22.29-.11,2.97-1.22,3.91-4.05,3.88-9.8-.1-19.6-.04-29.4-.02-1.29,0-2.57,.18-3.89,.28Zm-.06-7.72h3.45c6.53,0,13.06,0,19.58,0,5.87,0,6.69-1.4,3.84-6.6-.27-.49-.69-.88-1.04-1.33-4.33-5.47-10.37-5.97-16.27-4.44-5.63,1.45-8.67,5.99-9.56,12.37Z"/>
      <path class="cls-1" d="M40.94,235.11c0-8.67,.11-17.35-.06-26.02-.06-3.27,1.11-4.38,4.33-4.21,7.29,.39,14.6,.38,21.89,.81,6.98,.41,13.66,7.04,14.48,13.98,1.04,8.81-3.09,16.14-10.21,18.93-5.76,2.26-11.69,2.06-17.62,1.9-3.08-.08-4.15,.87-4.02,4.02,.24,5.74,0,11.49,.1,17.23,.04,2.26-.6,3.45-3.04,3.16-.78-.09-1.59-.1-2.36,0-2.69,.36-3.75-.87-3.49-3.45,.01-.11,0-.23,0-.34,0-8.67,0-17.35,0-26.02Zm8.87-12.67c0,2.7-.19,5.43,.11,8.1,.1,.9,1.44,2.31,2.27,2.36,4.04,.21,8.12,.23,12.15-.06,4.38-.32,7.76-3.43,8.32-7.13,.95-6.23-.53-10.9-5.25-12.05-5.22-1.27-10.83-1.04-16.27-1.27-.41-.02-1.22,1.47-1.27,2.29-.17,2.58-.06,5.18-.06,7.77Z"/>
      <path class="cls-1" d="M167.48,241.49c.59,14.9-11.17,24.76-24.2,24.57-14.14-.21-23.61-9.97-23.58-24.76,.03-14.64,9.55-23.97,24.03-24.3,12.48-.28,24.43,9.37,23.74,24.49Zm-8.75,.8c-.03-9.95-4.98-16.57-12.29-17.42-9.1-1.06-15.28,2.99-17.51,11.49-2,7.63,.72,16.24,6.29,19.6,5.27,3.17,10.7,3.24,16.01,.2,5.68-3.26,7.64-8.54,7.5-13.86Z"/>
      <path class="cls-1" d="M368.41,241.56c.57,14.81-11.16,24.71-24.27,24.49-14.11-.23-23.54-10.01-23.5-24.84,.04-14.61,9.59-23.91,24.11-24.22,12.36-.26,24.38,9.33,23.66,24.56Zm-8.75,.73c-.01-9.9-4.93-16.54-12.24-17.42-9.08-1.1-15.3,2.95-17.55,11.44-2.02,7.61,.68,16.24,6.24,19.62,5.26,3.19,10.69,3.27,16.01,.25,5.69-3.23,7.68-8.5,7.54-13.88Z"/>
      <path class="cls-1" d="M378.85,264.48c-.09-1.14-.27-2.35-.27-3.57-.02-12.95-.05-25.9,.04-38.85,0-1.31,.49-3.55,1.19-3.74,1.87-.49,4.1-.48,5.94,.1,.78,.25,.95,2.43,1.5,4.04,1.26-.95,2.38-2.03,3.69-2.76,10.72-5.98,29.08-2.98,29.83,15.4,.36,8.88,0,17.79,.18,26.69,.07,3.67-2.26,3.09-4.49,3.14-2.23,.05-4.25,.28-4.19-3.1,.15-7.77,.27-15.55-.1-23.31-.15-3.23-.91-6.8-2.57-9.5-3.22-5.23-8.87-4.96-13.99-3.94-4.53,.91-7.24,4.36-8.08,8.98-.44,2.41-.78,4.88-.83,7.32-.12,5.74-.04,11.49-.04,17.23,0,7.02-.28,7.24-7.81,5.86Z"/>
      <path class="cls-1" d="M274.06,217.14c9.23-.04,14.68,3.23,17.2,10.66,.44,1.29,.23,3.64-.63,4.36-1.8,1.51-6.65,.18-7.46-1.55-2.59-5.53-8.7-7.91-14.29-5.16-1.51,.74-2.83,2.73-3.36,4.42-.77,2.47,.85,4.45,3.05,5.4,3.18,1.38,6.54,2.36,9.81,3.52,2.43,.87,4.91,1.63,7.27,2.67,4.63,2.04,6.86,6,6.84,10.76-.02,4.99-2.39,9.03-7.07,11.45-8.94,4.63-20.81,2.64-26.93-4.61-.43-.52-1.04-1.02-1.18-1.63-.48-2.09-.79-4.22-1.16-6.33,2.33-.13,4.68-.51,6.96-.24,.82,.1,1.56,1.7,2.14,2.72,2.93,5.18,12.31,6.8,16.64,2.83,3.36-3.09,3.09-6.87-1.11-8.65-4.63-1.96-9.58-3.15-14.37-4.76-5.94-2.01-9.7-6.47-9.88-11.58-.26-7.44,5.81-13.6,14.14-14.28,1.12-.09,2.25-.01,3.38-.01Z"/>
      <path class="cls-1" d="M178.12,217.79c.72-3.97,.9-7.74,2.14-11.12,1.74-4.73,9.62-8.53,14.29-7.25,.71,.2,1.34,2.05,1.36,3.15,.03,1.53,1.02,3.58-1.95,4.14-5.14,.97-7.21,3.86-7.07,8.66,.05,1.81,.6,2.75,2.54,2.62,1.23-.08,2.48,.08,3.71-.02,2.55-.21,3.99,.43,3.97,3.46-.02,2.97-1.37,3.54-3.96,3.51-6.24-.05-6.24,.04-6.24,6.29,0,10.02-.13,20.04,.07,30.05,.07,3.5-1.64,3.64-4.33,3.7-2.83,.07-3.98-.59-3.93-3.71,.18-11.03,.04-22.06,.09-33.09,.01-2.06-.18-3.63-2.83-3.29-2.7,.35-3.83-.72-3.86-3.57-.03-3.13,1.63-3.53,4.07-3.36,.66,.04,1.33-.11,1.92-.17Z"/>
      <path class="cls-1" d="M490.56,233.25c0-9.47,.15-18.94-.08-28.4-.09-3.52,1.59-3.78,4.31-3.79,2.77-.02,4.37,.39,4.34,3.83-.14,18.82-.17,37.64,.02,56.46,.04,4.02-2.21,3.46-4.73,3.61-2.78,.17-4.02-.46-3.94-3.65,.21-9.35,.08-18.71,.08-28.06Z"/>
      <path class="cls-1" d="M99.18,222.09c3.61-1.69,6.91-3.54,10.42-4.74,1.52-.52,4.21-1.5,4.61,1.94,.6,5.21,.09,6.55-3.5,6.53-6.69-.04-11.4,4.89-11.65,13.04-.23,7.54-.24,15.09,.01,22.63,.12,3.8-2.09,3.34-4.53,3.48-2.72,.15-3.76-.65-3.73-3.55,.13-13.06,.06-26.12,.06-39.18,0-2.12-.46-4.41,3.02-4.29,2.8,.1,5.65-.34,5.2,3.91-.02,.2,.15,.41,.09,.25Z"/>
      <path class="cls-1" d="M302.48,241.4c0-6.65,.16-13.3-.06-19.94-.13-3.75,2.11-3.45,4.58-3.51,2.55-.06,4.23,.16,4.19,3.52-.16,13.4-.17,26.81,0,40.22,.05,3.65-2.1,3.22-4.37,3.23-2.3,0-4.5,.36-4.39-3.25,.2-6.75,.06-13.52,.06-20.28Z"/>
      <path class="cls-1" d="M312.34,205.34c-.03,3.26-2.25,5.58-5.36,5.62-2.75,.03-5.66-2.82-5.68-5.58-.03-3.27,2.42-5.66,5.77-5.62,3.25,.04,5.31,2.22,5.28,5.58Z"/>
    </g>
  </g>
</svg>